<svg xmlns="http://www.w3.org/2000/svg" xmlns:xlink="http://www.w3.org/1999/xlink" width="12" height="8" viewBox="0 0 12 8" fill="none"><g opacity="1"  transform="translate(0 0)"><mask id="bg-mask-0" fill="white"><use transform="translate(0 0)" xlink:href="#path_0"></use></mask><g mask="url(#bg-mask-0)" ><path id="路径 4 (轮廓)" fill-rule="evenodd" style="fill:#000000" opacity="1" d="M2.84 3.26995C2.56 3.00995 2.32 2.71995 2.11 2.40995C2.01 2.25995 1.94 2.14995 1.9 2.06995L1.9 2.06995C1.85 1.94995 1.77 1.84995 1.67 1.75995C1.57 1.66995 1.46 1.59995 1.33 1.55995C1.21 1.50995 1.08 1.48995 0.95 1.49995C0.82 1.50995 0.69 1.53995 0.57 1.59995C0.51 1.62995 0.45 1.65995 0.4 1.69995C0.35 1.73995 0.3 1.77995 0.26 1.82995C0.21 1.87995 0.17 1.92995 0.14 1.98995C0.11 2.03995 0.08 2.09995 0.06 2.16995C0.04 2.22995 0.02 2.28995 0.01 2.35995C0 2.41995 0 2.48995 0 2.54995C0 2.61995 0.01 2.67995 0.03 2.74995C0.05 2.80995 0.07 2.86995 0.1 2.92995L0.1 2.92995C0.18 3.09995 0.3 3.29995 0.45 3.52995C0.75 3.96995 1.09 4.36995 1.48 4.72995C2.03 5.24995 2.64 5.64995 3.31 5.94995C4.14 6.31995 5.04 6.49995 6 6.49995C6.96 6.49995 7.86 6.31995 8.69 5.94995C9.36 5.64995 9.97 5.24995 10.52 4.72995C10.91 4.36995 11.25 3.96995 11.55 3.52995C11.7 3.29995 11.82 3.09995 11.9 2.92995C11.96 2.80995 11.99 2.67995 12 2.54995C12.01 2.41995 11.99 2.28995 11.94 2.16995C11.9 2.03995 11.83 1.92995 11.74 1.82995C11.65 1.72995 11.55 1.64995 11.43 1.59995C11.37 1.56995 11.31 1.54995 11.25 1.52995C11.18 1.50995 11.12 1.49995 11.05 1.49995C10.99 1.49995 10.92 1.49995 10.86 1.50995C10.79 1.51995 10.73 1.53995 10.67 1.55995C10.6 1.57995 10.54 1.60995 10.49 1.63995C10.43 1.66995 10.38 1.70995 10.33 1.75995C10.28 1.79995 10.24 1.84995 10.2 1.89995C10.16 1.94995 10.13 2.00995 10.1 2.06995C10.06 2.14995 9.99 2.25995 9.89 2.40995C9.68 2.71995 9.44 3.00995 9.16 3.26995C8.28 4.08995 7.22 4.49995 6 4.49995C4.78 4.49995 3.72 4.08995 2.84 3.26995Z"></path></g></g><defs><rect id="path_0" x="0" y="0" width="12" height="8" rx="0" ry="0"/></defs></svg>